<?xml version="1.0" encoding="UTF-8" standalone="no"?>
<!-- Created with Inkscape (http://www.inkscape.org/) -->

<svg
   width="210mm"
   height="297mm"
   viewBox="0 0 210 297"
   version="1.1"
   id="svg5"
   inkscape:version="1.2.1 (9c6d41e410, 2022-07-14)"
   sodipodi:docname="LOGO.svg"
   xmlns:inkscape="http://www.inkscape.org/namespaces/inkscape"
   xmlns:sodipodi="http://sodipodi.sourceforge.net/DTD/sodipodi-0.dtd"
   xmlns="http://www.w3.org/2000/svg"
   xmlns:svg="http://www.w3.org/2000/svg">
  <sodipodi:namedview
     id="namedview7"
     pagecolor="#ffffff"
     bordercolor="#000000"
     borderopacity="0.25"
     inkscape:showpageshadow="2"
     inkscape:pageopacity="0.0"
     inkscape:pagecheckerboard="0"
     inkscape:deskcolor="#d1d1d1"
     inkscape:document-units="mm"
     showgrid="false"
     inkscape:zoom="1.4912879"
     inkscape:cx="402.00152"
     inkscape:cy="234.36119"
     inkscape:window-width="1920"
     inkscape:window-height="1001"
     inkscape:window-x="-9"
     inkscape:window-y="-9"
     inkscape:window-maximized="1"
     inkscape:current-layer="layer1" />
  <defs
     id="defs2" />
  <g
     inkscape:label="Layer 1"
     inkscape:groupmode="layer"
     id="layer1">
    <path
       id="path719"
       style="fill:#ffffff"
       d="M 135.7408,68.473234 132.7751,80.428208 107.9657,83.167459 105,95.122431 142.21377,91.013589 148.14515,67.103645 Z" />
    <path
       style="fill:#ffffff;stroke-width:0.274151"
       d="m 76.683974,63.366286 -2.965693,11.954972 56.400759,-6.227316 5.62176,-0.620708 12.40435,-1.369589 2.9657,-11.954972 z"
       id="rect597" />
    <path
       id="path602"
       style="fill:#ffffff"
       d="M 57.806615,42.195524 42.977997,101.971 55.382369,100.60141 67.245297,52.780904 92.054681,50.041652 86.327893,73.126839 98.732266,71.757249 107.42475,36.71709 Z" />
    <rect
       style="fill:#af90ff"
       id="rect721"
       width="12.31745"
       height="37.43961"
       x="51.459984"
       y="-170.46214"
       transform="matrix(-0.24077399,0.97058121,-0.99395978,0.109745,0,0)" />
    <rect
       style="fill:#af90ff"
       id="rect721-7"
       width="24.959738"
       height="12.31745"
       x="95.583168"
       y="100.72995"
       transform="matrix(0.99395978,-0.109745,-0.24077399,0.97058121,0,0)" />
  </g>
</svg>
